<?xml version="1.0" encoding="iso-8859-1"?>
<!-- Generator: Adobe Illustrator 19.0.0, SVG Export Plug-In . SVG Version: 6.00 Build 0)  -->
<svg version="1.1" id="Layer_1" xmlns="http://www.w3.org/2000/svg" xmlns:xlink="http://www.w3.org/1999/xlink" x="0px"
	y="0px" viewBox="0 0 511.999 511.999" style="enable-background:new 0 0 511.999 511.999;" xml:space="preserve">
	<circle style="fill:#D7F3FF;" cx="256.003" cy="256.003" r="249.99" />
	<path style="fill:#90BC42;"
		d="M419.602,379.213h53.947c-22.211,39.156-54.693,71.709-93.776,94.029l-71.902-94.029H419.602z" />
	<path style="fill:#B27214;" d="M449.437,216.999c0,0-25.17,15.85-43.81,15.85H106.381c-18.652,0-43.822-15.85-43.822-15.85
	c36.366,0,68.991-17.714,68.991-17.714h1.335h246.226h1.347C380.458,199.285,413.084,216.999,449.437,216.999z" />
	<polygon style="fill:#F9D2AF;"
		points="419.602,358.698 419.602,379.213 307.871,379.213 288.161,379.213 288.161,358.698 " />
	<path style="fill:#F95428;" d="M419.602,263.61v95.087H288.161v-35.885c0-17.762-14.395-32.169-32.157-32.169
	s-32.169,14.407-32.169,32.169v35.885H92.395V263.61h13.986h299.247H419.602z" />
	<rect x="106.379" y="232.854" style="fill:#46B779;" width="299.247" height="30.762" />
	<path style="fill:#B27214;" d="M412.374,157.82c0,0-19.878,12.519-34.598,12.519H134.22c-14.719,0-34.598-12.519-34.598-12.519
	c28.717,0,54.476-13.986,54.476-13.986h203.799C357.898,143.835,383.669,157.82,412.374,157.82z" />
	<path style="fill:#E6E6E6;" d="M307.871,379.213l71.902,94.029c-36.486,20.841-78.744,32.746-123.768,32.746
	c-45.265,0-87.727-12.038-124.346-33.071l0.253-0.457l71.312-93.247h20.612h64.325H307.871z" />
	<polygon style="fill:#46B779;" points="379.111,170.339 379.111,199.285 132.885,199.285 132.885,170.339 134.22,170.339 
	377.776,170.339 " />
	<polygon style="fill:#009245;"
		points="349.684,118.184 357.898,143.835 154.098,143.835 162.312,118.184 256.004,118.184 " />
	<polygon style="fill:#F9D2AF;"
		points="223.835,358.698 223.835,379.213 203.223,379.213 92.395,379.213 92.395,358.698 " />
	<path style="fill:#90BC42;" d="M203.223,379.213l-71.312,93.247l-0.253,0.457c-38.831-22.308-71.108-54.741-93.211-93.704h53.947
	H203.223z" />
	<path style="fill:#333333;" d="M255.999,0C114.841,0,0,114.842,0,255.999s114.841,255.999,255.999,255.999
	s255.999-114.842,255.999-255.999S397.159,0,255.999,0z M255.999,12.026c134.528,0,243.974,109.446,243.974,243.974
	c0,42.448-10.906,82.393-30.049,117.196h-44.307V263.613c0-3.32-2.691-6.013-6.013-6.013h-7.971v-19.169
	c18.919-2.557,40.024-15.722,41.006-16.34c2.267-1.427,3.317-4.183,2.574-6.756c-0.742-2.574-3.098-4.346-5.777-4.346
	c-29.651,0-57.167-12.543-64.311-16.066v-19.328c14.544-2.759,29.708-12.216,30.451-12.683c2.267-1.427,3.317-4.181,2.574-6.755
	c-0.742-2.573-3.098-4.346-5.777-4.346c-22.255,0-43.017-9.079-49.518-12.212l-7.154-22.351v-13.976c0-3.32-2.691-6.013-6.013-6.013
	c-3.322,0-6.013,2.693-6.013,6.013v8.903H168.324v-8.903c0-3.32-2.693-6.013-6.013-6.013s-6.013,2.693-6.013,6.013v13.977
	l-7.156,22.356c-6.488,3.138-27.179,12.207-49.516,12.207c-2.679,0-5.035,1.773-5.777,4.346c-0.743,2.573,0.307,5.329,2.574,6.755
	c0.744,0.469,15.908,9.925,30.451,12.683v19.33c-7.134,3.528-34.57,16.063-64.31,16.063c-2.679,0-5.035,1.773-5.777,4.346
	c-0.742,2.574,0.307,5.329,2.573,6.755c0.981,0.618,22.086,13.785,41.005,16.341v19.169h-7.971c-3.32,0-6.013,2.693-6.013,6.013
	v109.583H42.076c-19.144-34.801-30.05-74.747-30.05-117.195C12.026,121.472,121.472,12.026,255.999,12.026z M166.7,124.199h178.601
	l4.361,13.625H162.338L166.7,124.199z M155.564,149.85h200.87c4.252,2.143,17.521,8.364,34.373,11.742
	c-4.502,1.597-9.105,2.733-13.032,2.733h-243.55c-3.914,0-8.514-1.139-13.018-2.736C138.051,158.21,151.314,151.992,155.564,149.85z
	 M373.101,193.277H138.899v-16.926h234.202V193.277z M133.022,205.303h245.956c5.315,2.706,24.778,11.978,49.05,15.917
	c-7.209,3.024-15.425,5.616-22.407,5.616H106.378c-6.981,0-15.197-2.593-22.407-5.616
	C108.242,217.281,127.707,208.008,133.022,205.303z M112.391,238.863h287.218v18.738H112.391V238.863z M413.593,269.626v83.059
	H294.175v-29.875c0-21.05-17.125-38.174-38.174-38.174l0,0c-21.05,0-38.174,17.125-38.174,38.174v29.875H98.407v-83.059H413.593
	L413.593,269.626z M229.851,373.197v-50.386c0-14.419,11.73-26.149,26.15-26.149s26.149,11.73,26.149,26.149v50.386H229.851z
	 M98.407,364.71h119.418v8.485H98.407V364.71z M294.175,373.197v-8.485h119.418v8.485H294.175z M49.151,385.223h43.242h98.666
	l-60.946,79.693C97.294,445.065,69.512,417.697,49.151,385.223z M140.651,470.932l65.545-85.706h98.706l65.799,86.049
	c-34.213,18.302-73.263,28.699-114.701,28.699C214.301,499.974,175.018,489.451,140.651,470.932z M381.259,465.286l-61.223-80.065
	h99.569h43.243C442.358,417.902,414.351,445.405,381.259,465.286z" />
</svg>